<svg xmlns="http://www.w3.org/2000/svg" viewBox="0 0 546.08 1451.17"><defs><style>.cls-1{fill:#e6e7e8;}.cls-2{fill:#a31324;}.cls-3{fill:#ed1c24;}.cls-4{fill:#16242b;}.cls-5{fill:#c49a6c;}.cls-6{fill:#a97c50;}.cls-7{fill:#9b8579;}.cls-8{fill:#e0a4ab;}.cls-9{fill:#ffcdc2;}.cls-10{fill:#424143;}.cls-11{opacity:0.29;}.cls-12,.cls-13{fill:#231f20;}.cls-13{opacity:0.15;}</style></defs><g id="Layer_2" data-name="Layer 2"><g id="Layer_1-2" data-name="Layer 1"><path class="cls-1" d="M360.77,269.17c-90.38,23.5-110.55,17.31-116,.9-2.08-6.26-2-14-2.94-22.15,0-.12,0-.24,0-.36,0-.44-.11-.86-.16-1.3,0-.13,0-.27,0-.41A54.29,54.29,0,0,0,238,231.69c-4-11.17-26.21-9.62-40.8-6.52-38.89,7-111.66,38.74-139.93,52.74,0,0-9.79-40.45-20.67-89.65l-6.45-40.65c16.31,103,38.87,245.3,49,309.5,47.6-44.2,118.55-76.16,180.11-86.25l14.51,51.5a39.18,39.18,0,0,0,58.46,22.55c23.65-14.67,50.55-28.16,73.46-38.61,47.42-21.44,104-41.15,140.39-53.82L538.42,211.1C530.3,217.67,392,261,360.77,269.17Z"/><path class="cls-2" d="M309.33,17.2l20.06,120.62s-167.18,64.4-121-17.47S309.33,17.2,309.33,17.2Z"/><path class="cls-3" d="M538.42,211.1S443.58,249,360.77,269.17c-90.72,22.13-110.55,17.31-116,.9-2.08-6.26-2-14-2.94-22.15,0-.12,0-.24,0-.36,0-.44-.11-.86-.16-1.3,0-.13,0-.27,0-.41A54.29,54.29,0,0,0,238,231.69c-4-11.17-26.21-9.62-40.8-6.52-38.89,7-111.66,38.74-139.93,52.74,0,0-9.79-40.45-20.67-89.65L16.24,60.05l.13,0,.09,0a1.19,1.19,0,0,1,.22,0h.06l.18,0,.57-.12,2.63-.53c5.31-1.08,10.12-2.11,16-3.4l.19,0c44.7-9.8,89.29-22,132.37-37.57a426.48,426.48,0,0,1,43.94-12c46-9.85,87-9.42,96.7,10.93,13.51,28.38-101.82,94.42-76.9,127.17,3.1,4.36,10,6.13,17.24,5.81l.63,0h0a77.73,77.73,0,0,0,11.73-1.56c14.08-3,28.48-8.37,42.61-14.24C319.59,128.13,535,59.23,535,59.23"/><path class="cls-4" d="M273.51,1337.48C311.09,1355.1,362.16,1380,417,1399c0,0,38.71-28.7-11.34-54S370,1291.47,370,1291.47c-15.44-8-35.7-16.39-59.5-28.74Z"/><path class="cls-4" d="M103.13,1325.57s-4.64,35.91-18.88,61.14c-9.82,17.42-7.68,59,46.71,64.16,46.66,4.42,54.47-42,45.69-63.81s3.59-70.73,3.59-70.73Z"/><path class="cls-5" d="M154.47,846.54,94,1330.35c27.05,19.94,57.48,20.28,89.87,9.28,10.63-133,39.06-262.89,88.5-389.14A655.64,655.64,0,0,0,355,1060.19L293.37,1278.5a179,179,0,0,0,85.32,18.56s21.92-92.51,53.85-161,40.28-85.66,18-113.79c-25.13-31.75-101.7-185.4-98.88-184l-193.16-22Z"/><path class="cls-5" d="M230.6,528.05l-9.09,2L143.64,478.1,120.9,513.32,114,534.6l45.39,32.2s15.73,67,14.28,127S146.28,822,146.28,822c64.6,27.27,146.31,31.22,220.22,15,0,0-27.29-61.3-16.74-97.32s39.66-131.35,42.94-171-19-60.26-61.86-56.4-47,5-47,5l-33.94-3.92Z"/><path class="cls-6" d="M126.63,481.11l5.55-8.91,11.46,5.9C136.56,497,126.31,515.79,114,534.6l-10.2-9.2,5.1-10.72,5.82-23.79Z"/><rect class="cls-7" x="85.79" y="45.38" width="16.37" height="944.34" rx="8.19" transform="translate(-94.08 26.3) rotate(-10.66)"/><polygon class="cls-8" points="227.37 477.33 230.6 528.05 283.83 517.24 227.37 477.33"/><path class="cls-9" d="M218.05,445.09s-6.73,3.82-4.91,14.56,19.29,21.1,19.29,21.1S237,498.49,247,504.31a164.34,164.34,0,0,0,26.26,12.08,21.64,21.64,0,0,0,24.55-7.87c5.28-7.32,11.53-16.84,15.59-25.77,8.19-18,6.73-59,6.73-59s-10.55-26.31-47.85-20.85S218.05,445.09,218.05,445.09Z"/><path class="cls-10" d="M214.23,429l3.82,16.1a23.37,23.37,0,0,1,19.46,12,46.14,46.14,0,0,1,13.12-33.93l-20.76-12.1Z"/><path class="cls-6" d="M214.23,429l-4.92-12.72a13.34,13.34,0,0,1,6.46-16.72l73.5-36.87V417Z"/><path class="cls-5" d="M289.27,362.68,329.39,408v6.72a9,9,0,0,1-11,8.82L289.27,417Z"/><path class="cls-9" d="M126.63,481.11a245.77,245.77,0,0,1-21.56-21.27c-9.82-11.2-24.42-19.52-38.48-9S44.9,465.42,52.13,473.2c0,0-1.77,10.92,5.19,12.69,0,0-2.46,10.51,7.91,13,0,0,2,8,13.64,7s30,8.87,30,8.87S117.76,491.62,126.63,481.11Z"/><path class="cls-9" d="M160.54,776.25s-8.53-4-14.9-.23-3.45,18,4.73,20.56S156.28,793.94,160.54,776.25Z"/><path class="cls-9" d="M122.74,761.9c-9.33,1.37-22.77,5.07-23.13,15,0,0-7.36,9.82,0,20.47,0,0-2.72,12.82,3.82,18.82,0,0-1.09,14.19,13.38,18.83,13.42,4.31,27.32,1.68,38.63-11.82a9.86,9.86,0,0,0,1.49-10.62c-1.28-2.59-3.9-4.79-9.15-4.44,0,0,2.2-13-5.66-15.69,0,0-.94-13.1-8.3-15.28l.12-.26A10.64,10.64,0,0,0,122.74,761.9Z"/><path class="cls-8" d="M133.74,776.79a61.13,61.13,0,0,1-8.52,1.29c-2.85.25-5.69.37-8.54.38s-5.68-.08-8.53-.31a59.94,59.94,0,0,1-8.54-1.22,61.53,61.53,0,0,1,8.53-1.3c2.84-.24,5.69-.36,8.53-.37s5.69.09,8.54.31A59.6,59.6,0,0,1,133.74,776.79Z"/><path class="cls-8" d="M142.12,792.48A90,90,0,0,1,131.64,795c-3.51.66-7,1.17-10.59,1.58s-7.09.72-10.66.88a90.17,90.17,0,0,1-10.78,0,90.16,90.16,0,0,1,10.49-2.48c3.51-.66,7-1.16,10.58-1.57s7.1-.72,10.67-.88A92.15,92.15,0,0,1,142.12,792.48Z"/><path class="cls-8" d="M147.78,808.17a99.17,99.17,0,0,1-10.86,3.24c-3.65.93-7.33,1.69-11,2.37s-7.41,1.24-11.15,1.66a98.53,98.53,0,0,1-11.31.78A100.9,100.9,0,0,1,114.3,813c3.65-.92,7.33-1.68,11-2.36s7.41-1.24,11.15-1.66A101.17,101.17,0,0,1,147.78,808.17Z"/><path class="cls-8" d="M65.94,465.32a14.67,14.67,0,0,1-2.81,3,23.07,23.07,0,0,1-3.26,2.25,22.08,22.08,0,0,1-3.6,1.64,13.89,13.89,0,0,1-4.06.85,14.42,14.42,0,0,1,2.81-3,21.77,21.77,0,0,1,3.27-2.24,22.59,22.59,0,0,1,3.6-1.65A14.5,14.5,0,0,1,65.94,465.32Z"/><path class="cls-8" d="M71.39,478.1a14.42,14.42,0,0,1-2.81,3,22.27,22.27,0,0,1-3.26,2.25,22.59,22.59,0,0,1-3.6,1.65,14.57,14.57,0,0,1-4.06.85,14.73,14.73,0,0,1,2.81-3.05,22.54,22.54,0,0,1,3.27-2.24,21.7,21.7,0,0,1,3.6-1.64A14.23,14.23,0,0,1,71.39,478.1Z"/><path class="cls-8" d="M79,490.89a14.92,14.92,0,0,1-2.81,3,22.54,22.54,0,0,1-3.27,2.24,21.74,21.74,0,0,1-3.6,1.65,14.5,14.5,0,0,1-4,.85,14.16,14.16,0,0,1,2.81-3,22.27,22.27,0,0,1,3.26-2.25A23.07,23.07,0,0,1,75,491.74,14.5,14.5,0,0,1,79,490.89Z"/><g class="cls-11"><path class="cls-12" d="M159.38,566.8c15.34,6.8,30.74,13.36,46.41,19a219.88,219.88,0,0,0,23.76,7.14l3,.63c1,.21,2,.46,3,.57l3,.44,1.5.23c.5,0,1,.05,1.5.08l3,.15,1.5.07,1.54,0c2-.07,4.09-.08,6.14-.2,8.23-.44,16.49-1.48,24.74-2.59s16.49-2.49,24.73-3.87c16.48-2.79,32.93-5.88,49.45-8.83-8,2.6-16.06,4.86-24.17,7-4.06,1.08-8.13,2.07-12.21,3.09s-8.17,1.92-12.28,2.81c-8.19,1.87-16.48,3.32-24.77,4.77-4.17.62-8.33,1.28-12.54,1.73-2.1.22-4.19.53-6.31.69l-6.35.5c-2.13.1-4.28.1-6.42.15l-1.61,0-1.63-.1-3.27-.2a79.37,79.37,0,0,1-12.73-2.23,185.2,185.2,0,0,1-24.07-8.17A318.13,318.13,0,0,1,159.38,566.8Z"/></g><g class="cls-11"><path class="cls-12" d="M236.68,844.4c-3-20.44-5-41-6.27-61.64-.66-10.31-1.07-20.64-1.31-31s-.1-20.7.15-31.06c.46-10.33,1.2-20.78,2.35-31s2.2-20.52,3.5-30.76c2.5-20.48,5.27-40.94,8.74-61.3-1.26,20.61-2.87,41.18-4.59,61.73-.8,10.28-1.77,20.54-2.61,30.82-1,10.29-1.68,20.43-2.06,30.7s-.51,20.53-.43,30.82.24,20.57.41,30.86C235.09,803.17,235.85,823.77,236.68,844.4Z"/></g><g class="cls-11"><path class="cls-12" d="M243.84,955a162.1,162.1,0,0,1,17.25-6.4c5.82-1.84,11.69-3.47,17.61-4.93s11.87-2.74,17.88-3.81a160.24,160.24,0,0,1,18.25-2.33A162.82,162.82,0,0,1,297.59,944q-8.74,2.74-17.62,4.92c-5.91,1.45-11.87,2.73-17.88,3.8A164.89,164.89,0,0,1,243.84,955Z"/></g><path class="cls-6" d="M160.54,827.5s99,64.57,206,9.45C366.5,837,263,862.79,160.54,827.5Z"/><path class="cls-13" d="M232.43,144.37s4.86,66.8,9.12,101.48c0,.14,0,.28,0,.41.05.43.11.85.16,1.3,0,.12,0,.24,0,.36.77,6.11,1.79,13.72,2.94,22.15,5.6,40.85,14.52,100.79,14.52,100.79s-8.83,1.2-23.33,4.77c-5.54,1.37-11.9,3.08-18.93,5.19a856.07,856.07,0,0,1-19.15-113.11c-1.39-13.21-2.16-27.4-2.46-42.19-1.51-75.41,9.54-166.19,17.24-219.25l2.25-.48q5.81-1.2,11.47-2.18c1.13-.19,2.24-.38,3.36-.55s2.23-.35,3.33-.51,2.18-.33,3.26-.47,2.39-.33,3.57-.46c1-.13,2-.24,3-.35L246,.94l2.36-.21c.68-.07,1.35-.12,2-.17L251,.51l2-.13q2.33-.16,4.59-.24l1.49-.05c.73,0,1.43,0,2.15-.06,1,0,1.91,0,2.87,0C282.36,0,297,3.33,304.93,11.1A23.22,23.22,0,0,1,306.65,13a21,21,0,0,1,1.46,2,18.61,18.61,0,0,1,1.22,2.19C322.84,45.58,207.51,111.62,232.43,144.37Z"/></g></g></svg>