<svg xmlns="http://www.w3.org/2000/svg" viewBox="0 0 744.94 956.51"><defs><style>.cls-1{fill:#a31324;}.cls-2{fill:#ed1c24;}.cls-3{fill:#e6e7e8;}.cls-4{opacity:0.15;}.cls-5{fill:#231f20;}.cls-6{fill:#c2b59b;}.cls-7{fill:#ffcdc2;}.cls-8{fill:#e0a4ab;}.cls-9{opacity:0.5;}</style></defs><g id="Layer_2" data-name="Layer 2"><g id="Layer_1-2" data-name="Layer 1"><path class="cls-1" d="M542.46,24.78l6.23,112.11s-87.1.58-86-42.11S542.46,24.78,542.46,24.78Z"/><path class="cls-2" d="M729.9,331.38s17.27-18-51.95,20.94-159.83,49.82-163,15.5c-1.85-20.16.36-42.6-9.23-55.18-6.74-8.84-19.32-12.82-43.25-7.7q-2.64.56-5.44,1.22c-60,14-126.28,45.69-126.28,45.69L318.09,204.69,303.18,21.14s9.29-11.73,101-18.94C429.87.18,453-.46,472.71.33c50.64,2.05,78.41,13.59,67.62,35.61-9.94,20.25-37,42.28-35.71,55.6.64,6.78,8.62,11.31,29.94,12.18,63.17,2.6,199.38-36.83,199.38-36.83s-12.11,25.82,3.18,95.47A338.05,338.05,0,0,1,743.88,206C748.9,264.72,722.83,289.86,729.9,331.38Z"/><path class="cls-3" d="M741.15,338s6-16.17-63.2,22.77-159.83,49.82-163,15.5c-1.85-20.16.36-42.59-9.23-55.18h0c-6.75-8.85-19.33-12.81-43.25-7.7-1.76.38-3.57.78-5.44,1.22-60,14-126.28,45.69-126.28,45.69L318.09,204.69c55.83-32.55,61.82-36.24,121.89-39.61a416.84,416.84,0,0,1,64.73,1.52l2.38,86.53c96.33-13.4,133.16-10,236.79-47.13C748.9,264.72,734.08,296.49,741.15,338Z"/><g class="cls-4"><path class="cls-5" d="M540.33,35.94c-9.94,20.25-37,42.28-35.71,55.6l.09,75.06,2.38,86.53-1.38,68c-6.75-8.85-19.33-12.81-43.25-7.7-1.76.38-3.57.78-5.44,1.22C459.3,86.39,472.71.33,472.71.33,523.35,2.38,551.12,13.92,540.33,35.94Z"/></g><rect class="cls-6" x="329.89" y="13.92" width="20.77" height="942.59" transform="matrix(0.99, -0.1, 0.1, 0.99, -47.66, 37.19)"/><path class="cls-7" d="M116.11,766.64a214,214,0,0,1-29.6,33.74c-32.62,30.1-69.72,56.73-82.17,65.45l-1.21.84-1.27.88-.28.19-.47.33-.4.27-.3.21-.41.28,178.82,87.68,84.87-107.63a38.35,38.35,0,0,1,16.92-12.22l.32-.11a37.24,37.24,0,0,1,3.59-1.11c20.32-5.18,33.81-14.41,46.18-23.38,10-7.21,19.2-14.25,30.68-18.88h0c.61-.25,1.21-.48,1.83-.71a130.08,130.08,0,0,0,18.11-8.31h0c18.71-10.45,31-24,43.09-39.65,12.23-15.83,11-22.71,10.25-34.9a115,115,0,0,1-.15-11.54c.86-20.62-18.89-27.69-18.89-27.69,16.73-7.35,17.88-17.15,9.37-40.52-4-11.07-9.92-17.66-15-21.54h0l-10.21-5.24-.15,0s21.2-11,4.18-42.83c-14.75-27.63-24.66-28.56-24.66-28.56s17-16.87-.72-41.39c-13.12-18.14-22.36-16.31-24.19-15.7l-.32.11a72.66,72.66,0,0,0,2.26-7.26c.47-1.82.83-3.58,1.11-5.27,3.41-20.8-6.62-32-12.71-36.78a26.07,26.07,0,0,0-4.3-2.81c-.21-1.24-.44-2.35-.69-3.34-.06-.24-.11-.48-.17-.72a.21.21,0,0,1,0-.06c-.06-.21-.11-.41-.17-.61s-.13-.43-.2-.63c-.11-.36-.22-.69-.34-1l-.06-.15c-.07-.17-.13-.33-.2-.49-.14-.32-.28-.62-.43-.89s-.14-.26-.22-.38a2.64,2.64,0,0,0-.23-.35c-.07-.11-.15-.21-.22-.3a3.27,3.27,0,0,0-.24-.27.26.26,0,0,0-.09-.09.18.18,0,0,0-.08-.09,3,3,0,0,0-.6-.44,2.12,2.12,0,0,0-1.34-.25l-.31.05-.3.1-.31.13-.32.17-.24.16a4.85,4.85,0,0,0-.48.35l-.25.21-.33.3-.34.34-.12.13q-.45.48-.9,1.05c-.12.14-.23.29-.35.45s-.24.31-.35.47l-.36.5-.36.53-.45.67c-.16.27-.33.53-.5.8s-.35.56-.52.85l-.37.62c-.21.37-.44.74-.65,1.12,0,.06-.07.13-.11.2l-.59,1.05c-.64,1.17-1.3,2.4-2,3.67-.18.34-.35.7-.54,1a.07.07,0,0,0,0,.06c-.36.69-.72,1.38-1.07,2.08l-.74,1.45c-.52,1-1,2-1.53,3l-.69,1.34c-1.52,3-3.06,5.91-4.59,8.61-.25.45-.51.89-.77,1.32-.51.86-1,1.7-1.53,2.5-3.76,5.9-8.6,10.06-14.07,14.71h0c-10.57,9-23.49,19.72-35.46,48.23-17.48,41.62-47.37,86.43-84.66,126.36-1.47,1.59-3,3.17-4.47,4.74l0,0c-26.81,28-30.87,57.4-30.73,73.26a38.49,38.49,0,0,1-6,21Z"/><path class="cls-3" d="M340.27,422.55s-11.75,31.22-29.48,47.81c-8.58,8-11.85-7.78-11.85-7.78h0c5.47-4.65,10.31-8.81,14.07-14.71C324.05,430.56,335.52,395.08,340.27,422.55Z"/><path class="cls-8" d="M353.91,474.67a151.93,151.93,0,0,1-8.66,15.26,156.13,156.13,0,0,1-10.33,14.26c-1.85,2.28-3.84,4.47-5.75,6.64s-3.79,4.41-5.66,6.65q-5.58,6.72-11.07,13.53-10.9,13.68-21.63,27.5A64.7,64.7,0,0,0,282.15,573c-2.11,5.13-3.26,10.72-2.08,15.84a18,18,0,0,0,3.36,7,24.25,24.25,0,0,0,6,5.36,38.3,38.3,0,0,0,3.59,2,12.81,12.81,0,0,0,11,.29,29.37,29.37,0,0,0,7-4.17,63.57,63.57,0,0,0,6.3-5.7c4-4.08,7.75-8.56,11.84-12.84,8.06-8.52,16.36-16.72,24.68-24.93s16.73-16.31,25.27-24.29c-7.87,8.64-15.86,17.16-23.8,25.73L343.42,570.2c-4,4.29-7.94,8.55-11.81,12.89-1.95,2.15-3.79,4.35-5.69,6.61s-3.84,4.45-5.89,6.6a66.21,66.21,0,0,1-6.56,6.16,32.14,32.14,0,0,1-7.92,4.88,16.92,16.92,0,0,1-14.39-.34,39.8,39.8,0,0,1-4-2.27,28.36,28.36,0,0,1-7-6.25,22.71,22.71,0,0,1-2.57-4.09,22.35,22.35,0,0,1-1.58-4.58,25.45,25.45,0,0,1-.2-9.48,39,39,0,0,1,2.58-8.87,65.87,65.87,0,0,1,9.35-15.4c7.31-9.12,14.65-18.22,22.24-27.12,3.79-4.46,7.59-8.91,11.52-13.25,1.95-2.18,3.94-4.33,5.94-6.47s4-4.21,6-6.37a166.25,166.25,0,0,0,10.93-13.57c1.73-2.35,3.36-4.76,5-7.19S352.45,477.2,353.91,474.67Z"/><path class="cls-8" d="M317.39,595.93c-1,1.26-1.89,2.58-2.75,3.91s-1.7,2.68-2.47,4.06a57.45,57.45,0,0,0-4,8.53,36,36,0,0,0-2.17,9,23.18,23.18,0,0,0,.7,8.88,21.14,21.14,0,0,0,4.22,7.62,16.85,16.85,0,0,0,7,4.81,23.84,23.84,0,0,0,8.62,1.24,41.34,41.34,0,0,0,9-1.45,78.78,78.78,0,0,0,17.21-7q4.17-2.17,8.14-4.7c2.65-1.68,5.21-3.49,7.82-5.32,10.34-7.4,20.57-15,30.94-22.46q-13.87,13.22-29,25.1a115.58,115.58,0,0,1-16,10.91,80.73,80.73,0,0,1-18.06,7.55,45.44,45.44,0,0,1-9.91,1.48,26.61,26.61,0,0,1-10.16-1.63,20.8,20.8,0,0,1-8.41-6.15,23.24,23.24,0,0,1-4.59-9.18,25.44,25.44,0,0,1-.25-10.09,37.18,37.18,0,0,1,3-9.39,54.42,54.42,0,0,1,4.92-8.36A56,56,0,0,1,317.39,595.93Z"/><path class="cls-8" d="M343.39,642.13a209,209,0,0,0-15,19.75c-2.28,3.42-4.37,6.94-6.36,10.5l-1.44,2.7c-.49.89-.89,1.82-1.34,2.73-.93,1.82-1.69,3.69-2.49,5.56a45.33,45.33,0,0,0-2,5.63,32.24,32.24,0,0,0-1.17,5.75,20.05,20.05,0,0,0,1.63,11.1,17.75,17.75,0,0,0,8.25,7.79,33.71,33.71,0,0,0,11.79,3.11,28.35,28.35,0,0,1-12.59-1.19,21,21,0,0,1-5.82-3.08,18.31,18.31,0,0,1-4.52-5,22,22,0,0,1-2.74-13.06,35.11,35.11,0,0,1,1.13-6.49,46.55,46.55,0,0,1,2.09-6.13A93,93,0,0,1,325.73,660,99.37,99.37,0,0,1,343.39,642.13Z"/><path class="cls-8" d="M415.63,670.38q-12.61,4.83-24.72,10.74a223.34,223.34,0,0,0-23.4,13c-1.9,1.17-3.68,2.5-5.51,3.75s-3.55,2.66-5.33,4c-3.52,2.8-7.05,5.59-10.52,8.41s-6.92,5.64-10,8.71a38.74,38.74,0,0,0-4.22,4.82,17.25,17.25,0,0,0-2.75,5.33c-1.19,3.69-.26,7.74,1.6,11.52l.74,1.41c.25.47.54.92.8,1.39a14.64,14.64,0,0,0,1.76,2.36,13.94,13.94,0,0,0,4.8,3.31,19.57,19.57,0,0,0,6,1.44,33.17,33.17,0,0,0,6.38,0A66,66,0,0,0,364.06,748a118.51,118.51,0,0,0,12.52-4.53c4.11-1.72,8.14-3.65,12.11-5.71a256.8,256.8,0,0,0,23.19-13.69,187.35,187.35,0,0,1-22.18,15.51,129.61,129.61,0,0,1-24.65,11.57,62.3,62.3,0,0,1-13.48,3.1,36.44,36.44,0,0,1-7.09.15,23.43,23.43,0,0,1-7.14-1.57,17.41,17.41,0,0,1-6.26-4.23,18.77,18.77,0,0,1-2.29-3c-.29-.51-.6-1-.89-1.52l-.84-1.58a24.85,24.85,0,0,1-2.37-6.94,17.33,17.33,0,0,1-.24-3.82,16.81,16.81,0,0,1,.66-3.8,21.63,21.63,0,0,1,3.43-6.59,43.41,43.41,0,0,1,4.69-5.29,127.56,127.56,0,0,1,10.43-8.9c3.57-2.78,7.16-5.48,10.74-8.2l2.78-2c.93-.66,1.84-1.36,2.81-2,1.92-1.21,3.8-2.52,5.78-3.63a190.48,190.48,0,0,1,24.29-12.15A215.22,215.22,0,0,1,415.63,670.38Z"/><path class="cls-8" d="M288.35,610.52a94.44,94.44,0,0,1,5.83,19,132.17,132.17,0,0,1,2.41,19.86,138.12,138.12,0,0,1-4,39.82,144.19,144.19,0,0,1-6.24,19.08l-.94,2.33c-.32.77-.69,1.52-1,2.29l-2.09,4.56L280,722l-1.17,2.22c-.41.73-.84,1.44-1.26,2.16a157,157,0,0,1-24,31.74,234.94,234.94,0,0,0,21.09-33.31c.38-.73.77-1.45,1.13-2.18l1-2.22,2.1-4.43,1.91-4.52c.31-.75.65-1.49.94-2.26l.85-2.29a150.33,150.33,0,0,0,5.87-18.64c.37-1.59.82-3.16,1.14-4.75l1-4.79c.56-3.21,1.08-6.43,1.47-9.66a163.35,163.35,0,0,0,1.25-19.53,160.82,160.82,0,0,0-1.16-19.6A126.29,126.29,0,0,0,288.35,610.52Z"/><path class="cls-8" d="M143.48,718.69a79.13,79.13,0,0,1,1.83,8.16c.48,2.69.89,5.36,1.27,8s.75,5.32,1.08,8,.73,5.36,1,8.26a25.61,25.61,0,0,1-4.18-7.45,40.54,40.54,0,0,1-2.05-8.22,45.71,45.71,0,0,1-.38-8.43A30.56,30.56,0,0,1,143.48,718.69Z"/><path class="cls-8" d="M244,836.55c3.25-.08,6.31.18,9.38.23s6.08.21,9.1.21,6.05,0,9.1-.11l9.34-.33a26.85,26.85,0,0,1-8.91,3.63,42.11,42.11,0,0,1-19.08-.11A32.23,32.23,0,0,1,244,836.55Z"/><path class="cls-8" d="M388,739.39a50.2,50.2,0,0,1,6.33-2.74c2.15-.78,4.33-1.46,6.52-2s4.42-1.11,6.67-1.52a47,47,0,0,1,6.85-.82A48.79,48.79,0,0,1,408,735q-3.22,1.17-6.52,2c-2.2.59-4.42,1.11-6.67,1.52A48.37,48.37,0,0,1,388,739.39Z"/><path class="cls-6" d="M361.37,793.18l-4.26-41.6,20.18-6.86,4,39.44S372,792.59,361.37,793.18Z"/><g class="cls-9"><path class="cls-8" d="M330.74,812l0,0c-12.37,9-25.86,18.2-46.18,23.38a37.24,37.24,0,0,0-3.59,1.11l-.32.11a38.35,38.35,0,0,0-16.92,12.22L178.82,956.51,235,845.13a20.64,20.64,0,0,1,16.83-11.35C293.13,830.67,330.74,812,330.74,812Z"/></g><g class="cls-9"><path class="cls-8" d="M424.42,744.51s-14-9.85-39.47-3.51h-.05l49.77-31.41C435.38,721.8,436.65,728.68,424.42,744.51Z"/></g><g class="cls-9"><path class="cls-8" d="M284.25,599.87c19,15.57,30.29-.67,30.8-1.1-.42.55-17.69,23.42-6.58,39,11.25,15.79,37.86,2.17,37.86,2.17s-22.93,19.68-33.42,48S334,718.25,334,718.25c-12.22,20.87-4.08,29.07,4.2,32.29C282,741.39,247,763.47,247,763.47,307.4,682.58,285.88,605.23,284.25,599.87Z"/></g><path class="cls-8" d="M352.76,753.05H349A33.51,33.51,0,0,1,338,750.94l-3.74-1.45,4,.64c3.63.58,7.26,1.29,10.8,2.09Z"/><g class="cls-9"><path class="cls-8" d="M357.28,462.14a40.65,40.65,0,0,0-1.1,5.22.07.07,0,0,1,0,.05,28.67,28.67,0,0,1-1.94,7.15c-5.48,13.59-21.07,30.28-38.86,49.72-21.07,23-44.5,49.32-37,67.37a111.73,111.73,0,0,0,6.94,10.81c-38.23-16.58.68-86.33,34.34-120.63,34.38-35.05,20.66-59.28,20.66-59.28a26.07,26.07,0,0,1,4.3,2.81C350.66,430.1,360.69,441.34,357.28,462.14Z"/></g><g class="cls-9"><path class="cls-8" d="M315.91,709.6c-.43-.48-11.47-13.2,3.38-36.55C334.43,649.26,341.58,643,341.58,643s34.36-17,56-38.26a5.47,5.47,0,0,1,2.18-1.65L410,608.31h0S306.1,682.75,315.91,709.6Z"/></g><g class="cls-9"><path class="cls-8" d="M178.82,781.72s-26.19-10.75-41.2-45.49a38.49,38.49,0,0,0,6-21c-.14-15.86,3.92-45.25,30.73-73.26l0,0c1.5-1.57,3-3.15,4.47-4.74C178.82,637.17,139.6,738,178.82,781.72Z"/></g></g></g></svg>